<?xml version="1.0" standalone="no"?>
<!DOCTYPE svg PUBLIC "-//W3C//DTD SVG 20010904//EN"
 "http://www.w3.org/TR/2001/REC-SVG-20010904/DTD/svg10.dtd">
<svg version="1.0" xmlns="http://www.w3.org/2000/svg"
 width="400.000000pt" height="400.000000pt" viewBox="0 0 400.000000 400.000000"
 preserveAspectRatio="xMidYMid meet">
<metadata>
Created by potrace 1.11, written by Peter Selinger 2001-2013
</metadata>
<g transform="translate(0.000000,400.000000) scale(0.100000,-0.100000)"
fill="#000000" stroke="none">
<path d="M1874 3941 c-2 -3 -30 -6 -62 -7 -57 -2 -72 -4 -166 -24 -28 -6 -60
-12 -71 -14 -75 -15 -200 -55 -330 -105 -100 -40 -371 -197 -421 -246 -6 -5
-26 -21 -44 -35 -105 -79 -298 -287 -379 -409 -74 -111 -164 -273 -171 -306
-1 -3 -12 -31 -27 -62 -14 -32 -34 -87 -45 -123 -10 -36 -22 -72 -25 -80 -8
-18 -7 -16 -18 -65 -4 -22 -10 -44 -11 -50 -3 -9 -8 -33 -18 -95 -3 -14 -5
-25 -6 -25 -1 0 -3 -18 -5 -40 -2 -22 -7 -60 -9 -85 -8 -67 -8 -267 -1 -335
13 -121 22 -180 36 -240 5 -22 12 -51 15 -65 8 -40 36 -134 42 -145 4 -5 7
-16 9 -24 4 -29 67 -177 106 -250 22 -42 45 -86 51 -98 6 -13 14 -23 19 -23 4
0 7 -6 7 -12 0 -16 108 -166 175 -245 226 -264 542 -477 865 -582 52 -17 104
-32 115 -34 11 -2 38 -9 60 -15 50 -13 108 -23 220 -38 114 -14 496 -7 525 11
3 2 26 6 50 10 39 5 212 47 248 60 7 2 14 4 17 5 3 0 19 7 35 15 17 9 30 13
30 11 0 -3 35 11 78 30 109 49 126 58 134 69 4 5 8 7 8 2 0 -4 18 4 40 18 22
14 44 25 49 25 5 0 11 4 13 8 2 4 31 25 66 46 34 20 62 42 62 47 0 5 5 9 11 9
12 0 82 53 127 97 17 18 32 30 32 27 0 -8 138 134 180 185 56 68 64 78 80 101
8 12 20 28 25 34 6 7 15 21 22 31 74 120 103 169 114 195 8 16 17 30 21 30 5
0 8 6 8 14 0 8 13 42 29 77 27 61 40 92 47 114 34 108 73 248 77 275 3 19 8
46 11 60 6 25 14 88 22 170 6 66 6 267 -1 323 -8 74 -17 140 -21 162 -28 159
-85 347 -144 473 -17 35 -30 67 -30 72 0 6 -5 10 -10 10 -6 0 -9 3 -8 8 1 4
-6 23 -16 42 -17 32 -139 222 -158 245 -102 126 -268 291 -376 373 -45 34 -86
62 -90 62 -5 0 -17 9 -27 20 -10 11 -24 20 -32 20 -7 0 -13 3 -13 8 0 4 -10
12 -23 18 -12 6 -58 29 -102 52 -79 41 -122 59 -139 60 -5 0 -12 4 -15 9 -7 9
-182 71 -227 79 -42 8 -59 12 -61 14 -4 3 -12 5 -63 14 -25 5 -53 10 -62 12
-10 2 -28 6 -40 9 -65 14 -403 27 -414 16z"/>
</g>
</svg>
